<?xml version="1.0" encoding="utf-8"?>
<!-- Generator: Adobe Illustrator 23.0.2, SVG Export Plug-In . SVG Version: 6.00 Build 0)  -->
<svg version="1.1" id="Слой_1" xmlns="http://www.w3.org/2000/svg" xmlns:xlink="http://www.w3.org/1999/xlink" x="0px" y="0px"
	 viewBox="0 0 510.4 474.5" style="enable-background:new 0 0 510.4 474.5;" xml:space="preserve">
<style type="text/css">
	.st0{fill:none;stroke:#EFEFEF;stroke-width:6;stroke-linecap:round;stroke-linejoin:round;}
	.st1{fill-rule:evenodd;clip-rule:evenodd;fill:#EFEFEF;}
</style>
<path class="st0" d="M50.5,72.7c0-10.4,8.4-18.8,18.8-18.7C79.7,54,88,62.4,88,72.8s-8.4,18.8-18.8,18.7
	C58.9,91.5,50.5,83.1,50.5,72.7L50.5,72.7z"/>
<path class="st0" d="M40.5,314.2c0-7.3,6-13.3,13.3-13.2S67,307,67,314.3c0,7.3-6,13.3-13.3,13.2C46.4,327.5,40.5,321.6,40.5,314.2
	L40.5,314.2z"/>
<path class="st0" d="M406.1,16.7c0-6,4.9-10.8,10.8-10.7s10.8,4.9,10.7,10.8c0,6-4.9,10.8-10.8,10.7
	C410.9,27.5,406.2,22.7,406.1,16.7L406.1,16.7z"/>
<path class="st0" d="M453.5,158.1c0-9.8,8-17.8,17.8-17.7s17.8,8,17.7,17.8c0,9.8-8,17.8-17.8,17.7
	C461.4,175.9,453.5,168,453.5,158.1L453.5,158.1z"/>
<path class="st1" d="M434.7,220.2l39.1,15.1l-33.2,25.7L434.7,220.2z"/>
<path class="st1" d="M44.1,164.7l10.8,40.4l-40.3-11.8L44.1,164.7z"/>
<path class="st1" d="M148.8,86.4l26.4,20.7L143.7,119L148.8,86.4L148.8,86.4z"/>
<path class="st1" d="M501.1,50.3L477,73.5l-7.4-32.8L501.1,50.3L501.1,50.3z"/>
<path class="st1" d="M105.1,175.4l10.6,4.5l4.6-10.4l5.6,2.5l5,2.1l4.6-10.4l0.1,0.1l0.1-0.2l10.4,4.8l4.7-10.5l0.1,0.1l0.1-0.2
	l16,7.5l-2.6,5.7l-10.4-4.8l-4.7,10.5l-0.1-0.1l-0.1,0.2l-10.4-4.8l-4.7,10.5l-5.6-2.5l-5-2.1l-4.6,10.4l-5.6-2.5l-10.7-4.5
	L105.1,175.4L105.1,175.4z"/>
<path class="st1" d="M411.1,457.4l10.6,4.5l4.6-10.4l5.6,2.5l5,2.1l4.6-10.4l0.1,0.1l0.1-0.2l10.4,4.8l4.7-10.5l0.1,0.1l0.1-0.2
	l16,7.5l-2.6,5.7l-10.4-4.8l-4.7,10.5l-0.1-0.1l-0.1,0.2l-10.4-4.8l-4.7,10.5l-5.6-2.5l-5-2.1l-4.6,10.4l-5.6-2.5l-10.7-4.5
	L411.1,457.4L411.1,457.4z"/>
<path class="st1" d="M426.2,102.6l-3.5-10.2l-10.2,3.3l-1.8-5.5l-1.7-4.8l-10.2,3.3l0-0.1l-0.2,0.1l-3.1-10.3l-10.3,3.3l0-0.1
	l-0.2,0.1l-4.8-15.9l5.6-1.7l3.1,10.3l10.3-3.3l0,0.1l0.2-0.1l3.1,10.3l10.3-3.3l1.8,5.5l1.7,4.8l10.2-3.3l1.8,5.5l3.5,10.3
	L426.2,102.6z"/>
<path class="st1" d="M156.6,41.6v-9.7h-9.7v-8.6h9.7v-9.7h8.6v9.7h9.7v8.6h-9.7v9.7H156.6z"/>
<path class="st1" d="M84.5,267v-9.7h-9.7v-8.6h9.7V239h8.6v9.7h9.7v8.6h-9.7v9.7H84.5z"/>
<path class="st1" d="M495.3,316.8l-5.9-9.1l-9.1,5.9l-5.2-8.1l9.1-5.9l-5.9-9.1l8.1-5.2l5.9,9.1l9.1-5.9l5.2,8.1l-9.1,5.9l5.9,9.1
	L495.3,316.8L495.3,316.8z"/>
<path class="st1" d="M43.5,466.1l-1.7-7.1l-7.1,1.7l-1.5-6.4l7.1-1.7l-1.7-7.1l6.4-1.5l1.7,7.1l7.1-1.7l1.5,6.4l-7.1,1.7l1.7,7.1
	L43.5,466.1L43.5,466.1z"/>
<path class="st1" d="M386.7,165l0.9-12.9l-12.9-0.9l0.8-11.5l12.9,0.9l0.9-12.9l11.5,0.8l-0.9,12.9l12.9,0.9l-0.8,11.5l-12.9-0.9
	l-0.9,12.9L386.7,165L386.7,165z"/>
<path class="st1" d="M255.5,91.1l-4.2-10l-9.9,4l-2.2-5.4l-2-4.7l-9.9,4l-0.1-0.1L227,79l-3.8-10l-10,4l-0.1-0.1l-0.2,0.1L207,57.5
	l5.5-2.1l3.8,10l10-4l0.1,0.1l0.2-0.1l3.8,10l10-4l2.2,5.3l2,4.7l9.9-4l2.1,5.3l4.3,10L255.5,91.1L255.5,91.1z"/>
<path class="st1" d="M460.1,353.3l30.8,8.8l-8.8,30.8l-30.8-8.8L460.1,353.3z"/>
<path class="st1" d="M2.8,385.1L29,366.8L47.3,393l-26.2,18.4L2.8,385.1L2.8,385.1z"/>
</svg>
